<svg xmlns="http://www.w3.org/2000/svg" xmlns:xlink="http://www.w3.org/1999/xlink" width="225" zoomAndPan="magnify" viewBox="0 0 168.75 87.749997" height="117" preserveAspectRatio="xMidYMid meet" version="1.0"><defs><g/><clipPath id="33d37e449a"><path d="M 115.480469 17.464844 L 165 17.464844 L 165 77 L 115.480469 77 Z M 115.480469 17.464844 " clip-rule="nonzero"/></clipPath><clipPath id="325a7a9557"><path d="M 85 4 L 122 4 L 122 69 L 85 69 Z M 85 4 " clip-rule="nonzero"/></clipPath><clipPath id="1eca339510"><path d="M 91.070312 0.00390625 L 141.390625 32.363281 L 115.503906 72.621094 L 65.179688 40.261719 Z M 91.070312 0.00390625 " clip-rule="nonzero"/></clipPath><clipPath id="e9f50c7b68"><path d="M 91.070312 0.00390625 L 141.390625 32.363281 L 115.503906 72.621094 L 65.179688 40.261719 Z M 91.070312 0.00390625 " clip-rule="nonzero"/></clipPath></defs><g fill="#062621" fill-opacity="1"><g transform="translate(22.807424, 67.006785)"><g><path d="M 2.375 0.15625 C 2.175781 0.15625 2.03125 0.101562 1.9375 0 C 1.851562 -0.09375 1.800781 -0.242188 1.78125 -0.453125 C 1.707031 -1.085938 1.644531 -1.789062 1.59375 -2.5625 C 1.550781 -3.332031 1.519531 -4.101562 1.5 -4.875 C 1.488281 -5.144531 1.476562 -5.421875 1.46875 -5.703125 C 1.46875 -5.984375 1.46875 -6.265625 1.46875 -6.546875 C 1.46875 -7.617188 1.515625 -8.609375 1.609375 -9.515625 L 1.125 -9.4375 C 0.875 -9.425781 0.703125 -9.484375 0.609375 -9.609375 C 0.515625 -9.734375 0.46875 -9.929688 0.46875 -10.203125 C 0.46875 -10.367188 0.5 -10.492188 0.5625 -10.578125 C 0.632812 -10.660156 0.769531 -10.710938 0.96875 -10.734375 C 1.550781 -10.828125 2.203125 -10.894531 2.921875 -10.9375 C 3.640625 -10.988281 4.378906 -11.015625 5.140625 -11.015625 C 5.960938 -11.015625 6.710938 -11 7.390625 -10.96875 C 8.078125 -10.9375 8.691406 -10.894531 9.234375 -10.84375 C 9.429688 -10.832031 9.5625 -10.773438 9.625 -10.671875 C 9.695312 -10.566406 9.734375 -10.410156 9.734375 -10.203125 C 9.722656 -9.992188 9.675781 -9.832031 9.59375 -9.71875 C 9.519531 -9.601562 9.347656 -9.550781 9.078125 -9.5625 C 8.460938 -9.613281 7.8125 -9.65625 7.125 -9.6875 C 6.445312 -9.71875 5.734375 -9.734375 4.984375 -9.734375 C 4.660156 -9.734375 4.332031 -9.722656 4 -9.703125 C 3.664062 -9.691406 3.335938 -9.675781 3.015625 -9.65625 C 3.023438 -9.625 3.03125 -9.570312 3.03125 -9.5 C 2.988281 -8.957031 2.957031 -8.421875 2.9375 -7.890625 C 2.925781 -7.367188 2.921875 -6.816406 2.921875 -6.234375 C 2.921875 -6.085938 2.921875 -5.9375 2.921875 -5.78125 C 2.921875 -5.625 2.921875 -5.460938 2.921875 -5.296875 C 3.234375 -5.304688 3.539062 -5.3125 3.84375 -5.3125 C 4.15625 -5.3125 4.460938 -5.3125 4.765625 -5.3125 C 5.128906 -5.3125 5.5 -5.3125 5.875 -5.3125 C 6.25 -5.3125 6.617188 -5.300781 6.984375 -5.28125 C 7.398438 -5.269531 7.609375 -5.050781 7.609375 -4.625 C 7.609375 -4.4375 7.5625 -4.285156 7.46875 -4.171875 C 7.375 -4.066406 7.222656 -4.019531 7.015625 -4.03125 C 6.753906 -4.039062 6.472656 -4.046875 6.171875 -4.046875 C 5.878906 -4.054688 5.578125 -4.0625 5.265625 -4.0625 C 4.878906 -4.0625 4.492188 -4.054688 4.109375 -4.046875 C 3.722656 -4.046875 3.335938 -4.039062 2.953125 -4.03125 C 2.972656 -3.363281 3.003906 -2.75 3.046875 -2.1875 C 3.097656 -1.632812 3.144531 -1.113281 3.1875 -0.625 C 3.1875 -0.59375 3.1875 -0.5625 3.1875 -0.53125 C 3.195312 -0.5 3.203125 -0.46875 3.203125 -0.4375 C 3.203125 -0.207031 3.140625 -0.0507812 3.015625 0.03125 C 2.890625 0.113281 2.675781 0.15625 2.375 0.15625 Z M 2.375 0.15625 "/></g></g></g><g fill="#062621" fill-opacity="1"><g transform="translate(35.211161, 67.006785)"><g><path d="M 5.390625 0.078125 C 4.566406 0.078125 3.894531 0.0625 3.375 0.03125 C 2.863281 0.0078125 2.515625 -0.015625 2.328125 -0.046875 C 2.128906 -0.078125 1.972656 -0.144531 1.859375 -0.25 C 1.742188 -0.363281 1.671875 -0.488281 1.640625 -0.625 C 1.535156 -1.445312 1.441406 -2.34375 1.359375 -3.3125 C 1.285156 -4.289062 1.25 -5.28125 1.25 -6.28125 C 1.25 -6.71875 1.253906 -7.195312 1.265625 -7.71875 C 1.273438 -8.238281 1.296875 -8.75 1.328125 -9.25 C 1.359375 -9.757812 1.398438 -10.21875 1.453125 -10.625 C 1.484375 -10.800781 1.546875 -10.921875 1.640625 -10.984375 C 1.742188 -11.054688 1.882812 -11.09375 2.0625 -11.09375 C 2.320312 -11.09375 2.523438 -11.050781 2.671875 -10.96875 C 2.828125 -10.882812 2.894531 -10.71875 2.875 -10.46875 C 2.84375 -10.070312 2.8125 -9.679688 2.78125 -9.296875 C 2.75 -8.921875 2.722656 -8.507812 2.703125 -8.0625 C 2.691406 -7.613281 2.6875 -7.09375 2.6875 -6.5 C 2.6875 -5.550781 2.71875 -4.632812 2.78125 -3.75 C 2.84375 -2.863281 2.914062 -2.046875 3 -1.296875 C 3.269531 -1.265625 3.601562 -1.238281 4 -1.21875 C 4.394531 -1.207031 4.890625 -1.203125 5.484375 -1.203125 C 6.296875 -1.203125 7.003906 -1.21875 7.609375 -1.25 C 8.210938 -1.289062 8.644531 -1.320312 8.90625 -1.34375 C 9.3125 -1.363281 9.515625 -1.171875 9.515625 -0.765625 C 9.515625 -0.515625 9.460938 -0.34375 9.359375 -0.25 C 9.253906 -0.15625 9.109375 -0.0976562 8.921875 -0.078125 C 8.585938 -0.0351562 8.125 0 7.53125 0.03125 C 6.9375 0.0625 6.222656 0.078125 5.390625 0.078125 Z M 5.390625 0.078125 "/></g></g></g><g fill="#062621" fill-opacity="1"><g transform="translate(47.458492, 67.006785)"><g><path d="M 6.046875 0.15625 C 4.867188 0.15625 3.894531 -0.078125 3.125 -0.546875 C 2.351562 -1.023438 1.78125 -1.679688 1.40625 -2.515625 C 1.03125 -3.359375 0.84375 -4.328125 0.84375 -5.421875 C 0.84375 -6.597656 1.066406 -7.609375 1.515625 -8.453125 C 1.960938 -9.304688 2.59375 -9.960938 3.40625 -10.421875 C 4.226562 -10.878906 5.203125 -11.109375 6.328125 -11.109375 C 6.679688 -11.109375 7 -11.082031 7.28125 -11.03125 C 7.5625 -10.976562 7.816406 -10.910156 8.046875 -10.828125 C 8.179688 -10.804688 8.28125 -10.757812 8.34375 -10.6875 C 8.40625 -10.613281 8.4375 -10.5 8.4375 -10.34375 C 8.4375 -10.3125 8.4375 -10.273438 8.4375 -10.234375 C 8.4375 -10.203125 8.429688 -10.160156 8.421875 -10.109375 C 8.390625 -9.898438 8.335938 -9.753906 8.265625 -9.671875 C 9.234375 -9.304688 9.945312 -8.734375 10.40625 -7.953125 C 10.863281 -7.171875 11.09375 -6.207031 11.09375 -5.0625 C 11.09375 -4.0625 10.894531 -3.164062 10.5 -2.375 C 10.101562 -1.59375 9.523438 -0.972656 8.765625 -0.515625 C 8.015625 -0.0664062 7.109375 0.15625 6.046875 0.15625 Z M 2.265625 -5.4375 C 2.265625 -4.082031 2.578125 -3.023438 3.203125 -2.265625 C 3.835938 -1.503906 4.785156 -1.125 6.046875 -1.125 C 6.765625 -1.125 7.394531 -1.28125 7.9375 -1.59375 C 8.488281 -1.914062 8.914062 -2.367188 9.21875 -2.953125 C 9.519531 -3.546875 9.671875 -4.238281 9.671875 -5.03125 C 9.671875 -6 9.46875 -6.765625 9.0625 -7.328125 C 8.65625 -7.890625 7.972656 -8.300781 7.015625 -8.5625 C 6.816406 -8.625 6.71875 -8.769531 6.71875 -9 C 6.71875 -9.09375 6.734375 -9.21875 6.765625 -9.375 C 6.785156 -9.457031 6.804688 -9.523438 6.828125 -9.578125 C 6.859375 -9.640625 6.894531 -9.691406 6.9375 -9.734375 C 6.71875 -9.765625 6.472656 -9.78125 6.203125 -9.78125 C 4.972656 -9.78125 4.007812 -9.390625 3.3125 -8.609375 C 2.613281 -7.828125 2.265625 -6.769531 2.265625 -5.4375 Z M 2.265625 -5.4375 "/></g></g></g><g fill="#062621" fill-opacity="1"><g transform="translate(61.958127, 67.006785)"><g><path d="M 3.90625 0.15625 C 3.75 0.15625 3.601562 0.125 3.46875 0.0625 C 3.34375 0.0078125 3.226562 -0.09375 3.125 -0.25 C 2.582031 -1.207031 2.125 -2.265625 1.75 -3.421875 C 1.382812 -4.578125 1.097656 -5.757812 0.890625 -6.96875 C 0.679688 -8.1875 0.535156 -9.351562 0.453125 -10.46875 C 0.441406 -10.726562 0.5 -10.898438 0.625 -10.984375 C 0.757812 -11.066406 0.972656 -11.109375 1.265625 -11.109375 C 1.660156 -11.109375 1.863281 -10.945312 1.875 -10.625 C 1.988281 -8.925781 2.226562 -7.335938 2.59375 -5.859375 C 2.957031 -4.390625 3.410156 -3.082031 3.953125 -1.9375 C 4.335938 -2.875 4.691406 -3.832031 5.015625 -4.8125 C 5.335938 -5.789062 5.609375 -6.753906 5.828125 -7.703125 C 6.054688 -8.660156 6.222656 -9.554688 6.328125 -10.390625 C 6.390625 -10.660156 6.476562 -10.847656 6.59375 -10.953125 C 6.71875 -11.066406 6.863281 -11.125 7.03125 -11.125 C 7.226562 -11.125 7.382812 -11.070312 7.5 -10.96875 C 7.613281 -10.875 7.71875 -10.679688 7.8125 -10.390625 C 8.175781 -8.816406 8.601562 -7.300781 9.09375 -5.84375 C 9.582031 -4.394531 10.097656 -3.078125 10.640625 -1.890625 C 11.265625 -3.066406 11.757812 -4.351562 12.125 -5.75 C 12.488281 -7.15625 12.671875 -8.597656 12.671875 -10.078125 C 12.671875 -10.160156 12.671875 -10.25 12.671875 -10.34375 C 12.671875 -10.4375 12.671875 -10.523438 12.671875 -10.609375 C 12.671875 -10.796875 12.722656 -10.925781 12.828125 -11 C 12.929688 -11.070312 13.097656 -11.109375 13.328125 -11.109375 C 13.554688 -11.109375 13.738281 -11.078125 13.875 -11.015625 C 14.007812 -10.953125 14.078125 -10.816406 14.078125 -10.609375 C 14.085938 -10.492188 14.09375 -10.375 14.09375 -10.25 C 14.09375 -10.132812 14.09375 -10.019531 14.09375 -9.90625 C 14.09375 -8.132812 13.859375 -6.421875 13.390625 -4.765625 C 12.921875 -3.109375 12.265625 -1.601562 11.421875 -0.25 C 11.304688 -0.09375 11.179688 0.0078125 11.046875 0.0625 C 10.921875 0.125 10.785156 0.15625 10.640625 0.15625 C 10.503906 0.15625 10.375 0.125 10.25 0.0625 C 10.132812 0.0078125 10.023438 -0.0820312 9.921875 -0.21875 C 9.347656 -1.300781 8.816406 -2.476562 8.328125 -3.75 C 7.847656 -5.03125 7.457031 -6.285156 7.15625 -7.515625 C 6.925781 -6.285156 6.59375 -5.03125 6.15625 -3.75 C 5.726562 -2.476562 5.21875 -1.300781 4.625 -0.21875 C 4.519531 -0.0820312 4.410156 0.0078125 4.296875 0.0625 C 4.179688 0.125 4.050781 0.15625 3.90625 0.15625 Z M 3.90625 0.15625 "/></g></g></g><g fill="#062621" fill-opacity="1"><g transform="translate(79.085447, 67.006785)"><g><path d="M 5.609375 0.140625 C 4.785156 0.128906 4.113281 0.109375 3.59375 0.078125 C 3.082031 0.0546875 2.738281 0.03125 2.5625 0 C 2.363281 -0.03125 2.203125 -0.0976562 2.078125 -0.203125 C 1.960938 -0.304688 1.894531 -0.425781 1.875 -0.5625 C 1.769531 -1.289062 1.679688 -2.066406 1.609375 -2.890625 C 1.535156 -3.710938 1.492188 -4.539062 1.484375 -5.375 C 1.484375 -5.550781 1.484375 -5.722656 1.484375 -5.890625 C 1.484375 -6.066406 1.484375 -6.238281 1.484375 -6.40625 C 1.484375 -6.9375 1.488281 -7.46875 1.5 -8 C 1.519531 -8.53125 1.554688 -9.035156 1.609375 -9.515625 L 1.125 -9.4375 C 0.875 -9.425781 0.703125 -9.484375 0.609375 -9.609375 C 0.515625 -9.734375 0.46875 -9.929688 0.46875 -10.203125 C 0.46875 -10.367188 0.5 -10.492188 0.5625 -10.578125 C 0.632812 -10.660156 0.769531 -10.710938 0.96875 -10.734375 C 1.550781 -10.828125 2.203125 -10.894531 2.921875 -10.9375 C 3.640625 -10.988281 4.378906 -11.015625 5.140625 -11.015625 C 5.960938 -11.015625 6.710938 -11 7.390625 -10.96875 C 8.078125 -10.9375 8.691406 -10.894531 9.234375 -10.84375 C 9.429688 -10.832031 9.5625 -10.773438 9.625 -10.671875 C 9.695312 -10.566406 9.734375 -10.410156 9.734375 -10.203125 C 9.722656 -9.992188 9.675781 -9.832031 9.59375 -9.71875 C 9.519531 -9.601562 9.347656 -9.550781 9.078125 -9.5625 C 8.460938 -9.613281 7.8125 -9.65625 7.125 -9.6875 C 6.445312 -9.71875 5.734375 -9.734375 4.984375 -9.734375 C 4.660156 -9.734375 4.332031 -9.722656 4 -9.703125 C 3.664062 -9.691406 3.335938 -9.675781 3.015625 -9.65625 C 3.023438 -9.625 3.03125 -9.570312 3.03125 -9.5 C 2.988281 -8.9375 2.957031 -8.382812 2.9375 -7.84375 C 2.925781 -7.300781 2.921875 -6.710938 2.921875 -6.078125 C 3.234375 -6.085938 3.539062 -6.09375 3.84375 -6.09375 C 4.15625 -6.09375 4.460938 -6.09375 4.765625 -6.09375 C 5.128906 -6.09375 5.5 -6.09375 5.875 -6.09375 C 6.25 -6.09375 6.617188 -6.082031 6.984375 -6.0625 C 7.398438 -6.050781 7.609375 -5.832031 7.609375 -5.40625 C 7.609375 -5.21875 7.5625 -5.066406 7.46875 -4.953125 C 7.375 -4.847656 7.222656 -4.800781 7.015625 -4.8125 C 6.753906 -4.820312 6.472656 -4.828125 6.171875 -4.828125 C 5.867188 -4.835938 5.5625 -4.84375 5.25 -4.84375 C 4.875 -4.84375 4.488281 -4.835938 4.09375 -4.828125 C 3.707031 -4.828125 3.320312 -4.820312 2.9375 -4.8125 C 2.957031 -4.175781 2.988281 -3.554688 3.03125 -2.953125 C 3.082031 -2.359375 3.144531 -1.785156 3.21875 -1.234375 C 3.445312 -1.210938 3.726562 -1.191406 4.0625 -1.171875 C 4.394531 -1.160156 4.789062 -1.15625 5.25 -1.15625 C 6.175781 -1.15625 6.984375 -1.171875 7.671875 -1.203125 C 8.359375 -1.234375 8.84375 -1.265625 9.125 -1.296875 C 9.507812 -1.304688 9.710938 -1.113281 9.734375 -0.71875 C 9.734375 -0.46875 9.679688 -0.289062 9.578125 -0.1875 C 9.472656 -0.09375 9.328125 -0.0390625 9.140625 -0.03125 C 8.804688 0.0078125 8.34375 0.046875 7.75 0.078125 C 7.15625 0.117188 6.441406 0.140625 5.609375 0.140625 Z M 5.609375 0.140625 "/></g></g></g><g fill="#062621" fill-opacity="1"><g transform="translate(91.645596, 67.006785)"><g><path d="M 5.40625 -3.734375 C 4.914062 -3.734375 4.457031 -3.753906 4.03125 -3.796875 C 3.601562 -3.847656 3.222656 -3.910156 2.890625 -3.984375 C 2.890625 -3.335938 2.894531 -2.707031 2.90625 -2.09375 C 2.925781 -1.488281 2.945312 -0.9375 2.96875 -0.4375 C 2.988281 -0.269531 2.953125 -0.128906 2.859375 -0.015625 C 2.765625 0.0976562 2.578125 0.15625 2.296875 0.15625 C 2.046875 0.15625 1.863281 0.117188 1.75 0.046875 C 1.632812 -0.0234375 1.566406 -0.164062 1.546875 -0.375 C 1.515625 -0.914062 1.492188 -1.445312 1.484375 -1.96875 C 1.472656 -2.5 1.46875 -3.070312 1.46875 -3.6875 C 1.46875 -3.863281 1.46875 -4.046875 1.46875 -4.234375 C 1.46875 -4.421875 1.46875 -4.613281 1.46875 -4.8125 C 1.476562 -5.695312 1.503906 -6.554688 1.546875 -7.390625 C 1.597656 -8.234375 1.648438 -8.988281 1.703125 -9.65625 C 1.554688 -9.632812 1.414062 -9.609375 1.28125 -9.578125 C 1.15625 -9.546875 1.019531 -9.53125 0.875 -9.53125 C 0.625 -9.53125 0.46875 -9.695312 0.40625 -10.03125 C 0.394531 -10.082031 0.382812 -10.128906 0.375 -10.171875 C 0.375 -10.210938 0.375 -10.253906 0.375 -10.296875 C 0.375 -10.421875 0.40625 -10.519531 0.46875 -10.59375 C 0.53125 -10.675781 0.644531 -10.738281 0.8125 -10.78125 C 1.375 -10.90625 1.929688 -10.988281 2.484375 -11.03125 C 3.046875 -11.082031 3.644531 -11.109375 4.28125 -11.109375 C 6.113281 -11.109375 7.46875 -10.804688 8.34375 -10.203125 C 9.226562 -9.597656 9.671875 -8.660156 9.671875 -7.390625 C 9.671875 -6.484375 9.441406 -5.726562 8.984375 -5.125 C 8.523438 -4.519531 7.84375 -4.113281 6.9375 -3.90625 C 7.050781 -3.675781 7.179688 -3.453125 7.328125 -3.234375 C 7.472656 -3.023438 7.625 -2.832031 7.78125 -2.65625 C 8.257812 -2.09375 8.800781 -1.585938 9.40625 -1.140625 C 9.582031 -1.035156 9.671875 -0.890625 9.671875 -0.703125 C 9.671875 -0.546875 9.609375 -0.378906 9.484375 -0.203125 C 9.316406 0.0234375 9.132812 0.140625 8.9375 0.140625 C 8.820312 0.140625 8.707031 0.0976562 8.59375 0.015625 C 8.207031 -0.253906 7.867188 -0.523438 7.578125 -0.796875 C 7.296875 -1.078125 7.003906 -1.410156 6.703125 -1.796875 C 6.453125 -2.117188 6.226562 -2.445312 6.03125 -2.78125 C 5.832031 -3.113281 5.664062 -3.429688 5.53125 -3.734375 Z M 2.890625 -5.28125 C 3.191406 -5.207031 3.550781 -5.144531 3.96875 -5.09375 C 4.382812 -5.039062 4.828125 -5.015625 5.296875 -5.015625 C 6.253906 -5.015625 6.984375 -5.222656 7.484375 -5.640625 C 7.992188 -6.066406 8.25 -6.648438 8.25 -7.390625 C 8.25 -8.203125 7.953125 -8.8125 7.359375 -9.21875 C 6.765625 -9.625 5.832031 -9.828125 4.5625 -9.828125 C 4.050781 -9.828125 3.566406 -9.8125 3.109375 -9.78125 C 3.117188 -9.75 3.125 -9.710938 3.125 -9.671875 C 3.125 -9.640625 3.125 -9.601562 3.125 -9.5625 C 3.070312 -8.945312 3.019531 -8.273438 2.96875 -7.546875 C 2.925781 -6.828125 2.898438 -6.070312 2.890625 -5.28125 Z M 2.890625 -5.28125 "/></g></g></g><g clip-path="url(#33d37e449a)"><path fill="#348c2e" d="M 115.863281 73.21875 C 115.480469 72.601562 115.6875 71.347656 116.378906 69.621094 C 118.199219 65.121094 120.75 59.910156 123.191406 55.675781 C 130.402344 43.414062 137.390625 35.523438 149.289062 26.464844 C 153.59375 23.371094 159.597656 18.890625 164.484375 17.46875 C 164.941406 17.890625 162.0625 19.660156 161.289062 20.277344 C 155.144531 24.316406 149.835938 29.226562 144.804688 34.355469 C 137.246094 41.933594 128.234375 53.796875 122.582031 64.519531 C 122.191406 65.621094 123.445312 64.90625 123.78125 64.710938 C 127.242188 62.53125 130.945312 60.109375 134.738281 58.441406 C 141.480469 55.320312 148.230469 54.539062 155.597656 54.464844 C 159.53125 54.484375 167.925781 53.894531 162.8125 59.742188 C 153.726562 70.785156 137.316406 77.648438 123.496094 76.496094 C 123.136719 76.359375 123.460938 76.132812 124.40625 75.882812 C 137.300781 73.355469 152.03125 69.886719 160.484375 59.800781 C 161.210938 58.832031 162.660156 56.964844 161.320312 56.367188 C 157.753906 55.960938 152.464844 58.378906 148.496094 59.453125 C 139.429688 62.25 127.75 66.726562 121.921875 71.351562 C 120.378906 72.339844 118.828125 73.414062 116.996094 73.660156 C 116.628906 73.738281 116.144531 73.535156 116.015625 73.398438 Z M 115.863281 73.21875 " fill-opacity="1" fill-rule="nonzero"/></g><g clip-path="url(#325a7a9557)"><g clip-path="url(#1eca339510)"><g clip-path="url(#e9f50c7b68)"><path fill="#348c2e" d="M 112.835938 66.964844 C 105.757812 54.171875 93.304688 44.746094 88.109375 30.832031 C 85.625 24.207031 84.953125 16.621094 86.894531 9.667969 C 87.566406 7.683594 87.886719 4.980469 89.960938 4.164062 C 91.089844 3.867188 92.78125 4.59375 94.535156 5.113281 C 99.972656 6.757812 105.238281 9.113281 109.292969 13.082031 C 119.867188 22.914062 123.445312 39.339844 120.855469 52.867188 C 120.539062 54.804688 115.921875 72.613281 113.011719 67.238281 Z M 114.652344 57.625 C 115.066406 53.125 113.890625 46.558594 112.273438 41.640625 C 109.210938 33.855469 103.871094 25.425781 98.921875 18.746094 C 97.910156 17.46875 98.050781 18.054688 98.597656 19.167969 C 102.746094 26.882812 106.136719 34.632812 108.832031 43.167969 C 109.953125 46.925781 111.230469 51.988281 112.660156 56.015625 C 113.320312 57.8125 114.269531 61.257812 114.621094 57.933594 Z M 114.652344 57.625 " fill-opacity="1" fill-rule="nonzero"/></g></g></g><g fill="#062621" fill-opacity="1"><g transform="translate(45.608728, 76.180408)"><g><path d="M 4.71875 -5.578125 C 4.71875 -5.441406 4.707031 -5.332031 4.6875 -5.25 C 4.664062 -5.164062 4.625 -5.097656 4.5625 -5.046875 C 4.5 -5.003906 4.410156 -4.984375 4.296875 -4.984375 L 2 -4.984375 L 1.6875 -3.1875 L 3.734375 -3.1875 C 3.734375 -3.050781 3.722656 -2.941406 3.703125 -2.859375 C 3.679688 -2.773438 3.640625 -2.710938 3.578125 -2.671875 C 3.515625 -2.628906 3.421875 -2.609375 3.296875 -2.609375 L 1.578125 -2.609375 L 1.21875 -0.59375 L 4.21875 -0.59375 C 4.21875 -0.445312 4.207031 -0.332031 4.1875 -0.25 C 4.164062 -0.164062 4.125 -0.101562 4.0625 -0.0625 C 4 -0.0195312 3.910156 0 3.796875 0 L 0.921875 0 C 0.773438 0 0.671875 -0.015625 0.609375 -0.046875 C 0.546875 -0.078125 0.515625 -0.144531 0.515625 -0.25 C 0.515625 -0.289062 0.523438 -0.351562 0.546875 -0.4375 L 1.34375 -4.984375 L 0.640625 -4.984375 C 0.640625 -5.128906 0.648438 -5.242188 0.671875 -5.328125 C 0.691406 -5.410156 0.734375 -5.472656 0.796875 -5.515625 C 0.859375 -5.554688 0.945312 -5.578125 1.0625 -5.578125 Z M 4.71875 -5.578125 "/></g></g></g><g fill="#062621" fill-opacity="1"><g transform="translate(53.373838, 76.180408)"><g><path d="M 3.75 -3.40625 C 3.613281 -3.207031 3.414062 -2.976562 3.15625 -2.71875 C 2.90625 -2.457031 2.640625 -2.222656 2.359375 -2.015625 L 3.59375 -0.015625 C 3.539062 0.00390625 3.472656 0.0195312 3.390625 0.03125 C 3.316406 0.0507812 3.25 0.0625 3.1875 0.0625 C 3.082031 0.0625 3 0.0390625 2.9375 0 C 2.875 -0.0390625 2.816406 -0.109375 2.765625 -0.203125 L 1.890625 -1.734375 C 1.484375 -1.378906 1.160156 -1.054688 0.921875 -0.765625 C 0.679688 -0.484375 0.5 -0.210938 0.375 0.046875 C 0.238281 0.046875 0.125 0.0195312 0.03125 -0.03125 C -0.0625 -0.0820312 -0.109375 -0.15625 -0.109375 -0.25 C -0.109375 -0.332031 -0.0703125 -0.429688 0 -0.546875 C 0.0625 -0.660156 0.140625 -0.769531 0.234375 -0.875 C 0.597656 -1.300781 1.054688 -1.734375 1.609375 -2.171875 L 0.546875 -3.953125 C 0.597656 -3.972656 0.660156 -3.988281 0.734375 -4 C 0.804688 -4.007812 0.878906 -4.015625 0.953125 -4.015625 C 1.046875 -4.015625 1.125 -3.992188 1.1875 -3.953125 C 1.25 -3.921875 1.304688 -3.859375 1.359375 -3.765625 L 2.078125 -2.453125 C 2.390625 -2.722656 2.660156 -3 2.890625 -3.28125 C 3.117188 -3.570312 3.285156 -3.835938 3.390625 -4.078125 C 3.554688 -4.066406 3.679688 -4.035156 3.765625 -3.984375 C 3.847656 -3.941406 3.890625 -3.875 3.890625 -3.78125 C 3.890625 -3.6875 3.84375 -3.5625 3.75 -3.40625 Z M 3.75 -3.40625 "/></g></g></g><g fill="#062621" fill-opacity="1"><g transform="translate(60.418432, 76.180408)"><g><path d="M 2.046875 0.09375 C 1.691406 0.09375 1.390625 0.0195312 1.140625 -0.125 C 0.890625 -0.269531 0.695312 -0.472656 0.5625 -0.734375 C 0.4375 -0.992188 0.375 -1.296875 0.375 -1.640625 C 0.375 -2.109375 0.472656 -2.523438 0.671875 -2.890625 C 0.867188 -3.265625 1.140625 -3.554688 1.484375 -3.765625 C 1.835938 -3.972656 2.226562 -4.078125 2.65625 -4.078125 C 2.875 -4.078125 3.082031 -4.046875 3.28125 -3.984375 C 3.488281 -3.921875 3.65625 -3.835938 3.78125 -3.734375 C 3.820312 -3.703125 3.847656 -3.671875 3.859375 -3.640625 C 3.867188 -3.609375 3.875 -3.570312 3.875 -3.53125 C 3.875 -3.4375 3.796875 -3.304688 3.640625 -3.140625 C 3.523438 -3.234375 3.378906 -3.316406 3.203125 -3.390625 C 3.023438 -3.460938 2.84375 -3.5 2.65625 -3.5 C 2.351562 -3.5 2.078125 -3.425781 1.828125 -3.28125 C 1.578125 -3.144531 1.378906 -2.9375 1.234375 -2.65625 C 1.085938 -2.382812 1.015625 -2.054688 1.015625 -1.671875 C 1.015625 -1.429688 1.054688 -1.222656 1.140625 -1.046875 C 1.222656 -0.867188 1.347656 -0.726562 1.515625 -0.625 C 1.679688 -0.53125 1.867188 -0.484375 2.078125 -0.484375 C 2.328125 -0.484375 2.539062 -0.523438 2.71875 -0.609375 C 2.894531 -0.691406 3.078125 -0.804688 3.265625 -0.953125 C 3.335938 -0.878906 3.390625 -0.8125 3.421875 -0.75 C 3.460938 -0.695312 3.484375 -0.640625 3.484375 -0.578125 C 3.484375 -0.453125 3.40625 -0.335938 3.25 -0.234375 C 2.945312 -0.015625 2.546875 0.09375 2.046875 0.09375 Z M 2.046875 0.09375 "/></g></g></g><g fill="#062621" fill-opacity="1"><g transform="translate(67.33132, 76.180408)"><g><path d="M 4.1875 -0.53125 C 4.21875 -0.4375 4.234375 -0.351562 4.234375 -0.28125 C 4.234375 -0.164062 4.195312 -0.0820312 4.125 -0.03125 C 4.039062 0.03125 3.90625 0.0625 3.71875 0.0625 C 3.476562 0.0625 3.296875 0.0078125 3.171875 -0.09375 C 3.054688 -0.195312 3 -0.351562 3 -0.5625 C 3 -0.65625 3.003906 -0.75 3.015625 -0.84375 L 3.28125 -2.296875 C 3.3125 -2.484375 3.328125 -2.640625 3.328125 -2.765625 C 3.328125 -3.035156 3.265625 -3.226562 3.140625 -3.34375 C 3.015625 -3.46875 2.84375 -3.53125 2.625 -3.53125 C 2.40625 -3.53125 2.175781 -3.472656 1.9375 -3.359375 C 1.695312 -3.242188 1.492188 -3.097656 1.328125 -2.921875 L 0.8125 0.015625 C 0.71875 0.0234375 0.632812 0.03125 0.5625 0.03125 C 0.445312 0.03125 0.363281 0.015625 0.3125 -0.015625 C 0.257812 -0.046875 0.234375 -0.101562 0.234375 -0.1875 C 0.234375 -0.207031 0.238281 -0.25 0.25 -0.3125 L 1.1875 -5.671875 C 1.25 -5.679688 1.332031 -5.6875 1.4375 -5.6875 C 1.5625 -5.6875 1.644531 -5.671875 1.6875 -5.640625 C 1.738281 -5.609375 1.765625 -5.550781 1.765625 -5.46875 C 1.765625 -5.445312 1.757812 -5.398438 1.75 -5.328125 L 1.4375 -3.5625 C 1.632812 -3.738281 1.847656 -3.867188 2.078125 -3.953125 C 2.304688 -4.046875 2.535156 -4.09375 2.765625 -4.09375 C 3.128906 -4.09375 3.414062 -3.992188 3.625 -3.796875 C 3.84375 -3.597656 3.953125 -3.285156 3.953125 -2.859375 C 3.953125 -2.671875 3.929688 -2.476562 3.890625 -2.28125 L 3.65625 -0.875 C 3.644531 -0.789062 3.640625 -0.734375 3.640625 -0.703125 C 3.640625 -0.546875 3.71875 -0.46875 3.875 -0.46875 C 3.957031 -0.46875 4.0625 -0.488281 4.1875 -0.53125 Z M 4.1875 -0.53125 "/></g></g></g><g fill="#062621" fill-opacity="1"><g transform="translate(74.833016, 76.180408)"><g><path d="M 4.390625 -0.53125 C 4.421875 -0.4375 4.4375 -0.351562 4.4375 -0.28125 C 4.4375 -0.164062 4.398438 -0.0820312 4.328125 -0.03125 C 4.242188 0.03125 4.101562 0.0625 3.90625 0.0625 C 3.675781 0.0625 3.5 0.0078125 3.375 -0.09375 C 3.257812 -0.195312 3.203125 -0.347656 3.203125 -0.546875 C 3.023438 -0.347656 2.816406 -0.1875 2.578125 -0.0625 C 2.347656 0.0625 2.113281 0.125 1.875 0.125 C 1.570312 0.125 1.304688 0.0625 1.078125 -0.0625 C 0.859375 -0.195312 0.6875 -0.394531 0.5625 -0.65625 C 0.4375 -0.925781 0.375 -1.253906 0.375 -1.640625 C 0.375 -2.078125 0.460938 -2.484375 0.640625 -2.859375 C 0.816406 -3.234375 1.066406 -3.53125 1.390625 -3.75 C 1.710938 -3.976562 2.070312 -4.09375 2.46875 -4.09375 C 2.71875 -4.09375 2.945312 -4.039062 3.15625 -3.9375 C 3.375 -3.832031 3.554688 -3.6875 3.703125 -3.5 L 3.71875 -3.609375 C 3.738281 -3.742188 3.757812 -3.835938 3.78125 -3.890625 C 3.8125 -3.941406 3.847656 -3.972656 3.890625 -3.984375 C 3.941406 -4.003906 4.019531 -4.015625 4.125 -4.015625 C 4.164062 -4.015625 4.210938 -4.007812 4.265625 -4 C 4.316406 -4 4.363281 -3.992188 4.40625 -3.984375 L 3.859375 -0.875 C 3.847656 -0.789062 3.84375 -0.734375 3.84375 -0.703125 C 3.84375 -0.546875 3.914062 -0.46875 4.0625 -0.46875 C 4.15625 -0.46875 4.265625 -0.488281 4.390625 -0.53125 Z M 1.9375 -0.4375 C 2.175781 -0.4375 2.414062 -0.507812 2.65625 -0.65625 C 2.90625 -0.8125 3.117188 -1.015625 3.296875 -1.265625 L 3.609375 -2.96875 C 3.472656 -3.15625 3.304688 -3.296875 3.109375 -3.390625 C 2.910156 -3.484375 2.703125 -3.53125 2.484375 -3.53125 C 2.179688 -3.53125 1.921875 -3.441406 1.703125 -3.265625 C 1.484375 -3.085938 1.3125 -2.859375 1.1875 -2.578125 C 1.070312 -2.296875 1.015625 -1.992188 1.015625 -1.671875 C 1.015625 -1.273438 1.09375 -0.96875 1.25 -0.75 C 1.414062 -0.539062 1.644531 -0.4375 1.9375 -0.4375 Z M 1.9375 -0.4375 "/></g></g></g><g fill="#062621" fill-opacity="1"><g transform="translate(82.574885, 76.180408)"><g><path d="M 4.421875 -0.53125 C 4.453125 -0.4375 4.46875 -0.351562 4.46875 -0.28125 C 4.46875 -0.164062 4.425781 -0.0820312 4.34375 -0.03125 C 4.257812 0.03125 4.125 0.0625 3.9375 0.0625 C 3.707031 0.0625 3.53125 0.0078125 3.40625 -0.09375 C 3.28125 -0.195312 3.21875 -0.351562 3.21875 -0.5625 C 3.21875 -0.65625 3.226562 -0.75 3.25 -0.84375 L 3.5 -2.296875 C 3.53125 -2.484375 3.546875 -2.640625 3.546875 -2.765625 C 3.546875 -3.035156 3.484375 -3.226562 3.359375 -3.34375 C 3.242188 -3.46875 3.070312 -3.53125 2.84375 -3.53125 C 2.625 -3.53125 2.390625 -3.472656 2.140625 -3.359375 C 1.898438 -3.242188 1.703125 -3.09375 1.546875 -2.90625 L 1.015625 0.015625 C 0.929688 0.0234375 0.851562 0.03125 0.78125 0.03125 C 0.664062 0.03125 0.582031 0.015625 0.53125 -0.015625 C 0.476562 -0.046875 0.453125 -0.101562 0.453125 -0.1875 C 0.453125 -0.207031 0.457031 -0.25 0.46875 -0.3125 L 0.953125 -3.09375 C 0.960938 -3.144531 0.96875 -3.203125 0.96875 -3.265625 C 0.96875 -3.359375 0.945312 -3.421875 0.90625 -3.453125 C 0.875 -3.492188 0.816406 -3.515625 0.734375 -3.515625 C 0.671875 -3.515625 0.609375 -3.507812 0.546875 -3.5 C 0.484375 -3.488281 0.429688 -3.472656 0.390625 -3.453125 C 0.378906 -3.515625 0.375 -3.582031 0.375 -3.65625 C 0.375 -3.8125 0.4375 -3.914062 0.5625 -3.96875 C 0.675781 -4.007812 0.804688 -4.03125 0.953125 -4.03125 C 1.160156 -4.03125 1.316406 -3.988281 1.421875 -3.90625 C 1.535156 -3.820312 1.597656 -3.691406 1.609375 -3.515625 C 1.804688 -3.703125 2.023438 -3.84375 2.265625 -3.9375 C 2.503906 -4.039062 2.742188 -4.09375 2.984375 -4.09375 C 3.359375 -4.09375 3.648438 -3.992188 3.859375 -3.796875 C 4.066406 -3.597656 4.171875 -3.285156 4.171875 -2.859375 C 4.171875 -2.671875 4.15625 -2.476562 4.125 -2.28125 L 3.875 -0.875 C 3.863281 -0.789062 3.859375 -0.734375 3.859375 -0.703125 C 3.859375 -0.546875 3.9375 -0.46875 4.09375 -0.46875 C 4.1875 -0.46875 4.296875 -0.488281 4.421875 -0.53125 Z M 4.421875 -0.53125 "/></g></g></g><g fill="#062621" fill-opacity="1"><g transform="translate(90.301257, 76.180408)"><g><path d="M 4.140625 -4.015625 C 4.179688 -4.015625 4.226562 -4.007812 4.28125 -4 C 4.332031 -4 4.378906 -3.992188 4.421875 -3.984375 L 3.796875 -0.46875 C 3.722656 -0.03125 3.601562 0.328125 3.4375 0.609375 C 3.269531 0.898438 3.050781 1.113281 2.78125 1.25 C 2.507812 1.394531 2.175781 1.46875 1.78125 1.46875 C 1.457031 1.46875 1.175781 1.425781 0.9375 1.34375 C 0.695312 1.257812 0.515625 1.171875 0.390625 1.078125 C 0.304688 1.015625 0.265625 0.941406 0.265625 0.859375 C 0.265625 0.742188 0.347656 0.609375 0.515625 0.453125 C 0.648438 0.578125 0.820312 0.679688 1.03125 0.765625 C 1.25 0.859375 1.5 0.90625 1.78125 0.90625 C 2.164062 0.90625 2.472656 0.796875 2.703125 0.578125 C 2.929688 0.359375 3.085938 0.0195312 3.171875 -0.4375 L 3.203125 -0.625 C 3.023438 -0.445312 2.816406 -0.300781 2.578125 -0.1875 C 2.347656 -0.0820312 2.113281 -0.03125 1.875 -0.03125 C 1.570312 -0.03125 1.304688 -0.09375 1.078125 -0.21875 C 0.859375 -0.351562 0.6875 -0.546875 0.5625 -0.796875 C 0.4375 -1.046875 0.375 -1.351562 0.375 -1.71875 C 0.375 -2.132812 0.460938 -2.523438 0.640625 -2.890625 C 0.828125 -3.253906 1.078125 -3.546875 1.390625 -3.765625 C 1.710938 -3.984375 2.070312 -4.09375 2.46875 -4.09375 C 2.726562 -4.09375 2.960938 -4.039062 3.171875 -3.9375 C 3.390625 -3.832031 3.570312 -3.679688 3.71875 -3.484375 L 3.734375 -3.609375 C 3.753906 -3.742188 3.773438 -3.835938 3.796875 -3.890625 C 3.828125 -3.941406 3.863281 -3.972656 3.90625 -3.984375 C 3.957031 -4.003906 4.035156 -4.015625 4.140625 -4.015625 Z M 1.953125 -0.59375 C 2.179688 -0.59375 2.421875 -0.660156 2.671875 -0.796875 C 2.929688 -0.929688 3.148438 -1.113281 3.328125 -1.34375 L 3.625 -2.953125 C 3.488281 -3.140625 3.316406 -3.28125 3.109375 -3.375 C 2.910156 -3.476562 2.703125 -3.53125 2.484375 -3.53125 C 2.191406 -3.53125 1.929688 -3.441406 1.703125 -3.265625 C 1.484375 -3.097656 1.3125 -2.875 1.1875 -2.59375 C 1.070312 -2.320312 1.015625 -2.039062 1.015625 -1.75 C 1.015625 -1.382812 1.09375 -1.097656 1.25 -0.890625 C 1.414062 -0.691406 1.648438 -0.59375 1.953125 -0.59375 Z M 1.953125 -0.59375 "/></g></g></g><g fill="#062621" fill-opacity="1"><g transform="translate(97.833947, 76.180408)"><g><path d="M 4.03125 -3.09375 C 4.03125 -2.8125 3.925781 -2.554688 3.71875 -2.328125 C 3.519531 -2.109375 3.191406 -1.925781 2.734375 -1.78125 C 2.285156 -1.644531 1.703125 -1.566406 0.984375 -1.546875 C 0.992188 -1.191406 1.085938 -0.914062 1.265625 -0.71875 C 1.441406 -0.53125 1.695312 -0.4375 2.03125 -0.4375 C 2.5 -0.4375 2.929688 -0.617188 3.328125 -0.984375 C 3.472656 -0.847656 3.546875 -0.726562 3.546875 -0.625 C 3.546875 -0.539062 3.503906 -0.453125 3.421875 -0.359375 C 3.285156 -0.222656 3.085938 -0.109375 2.828125 -0.015625 C 2.578125 0.078125 2.300781 0.125 2 0.125 C 1.65625 0.125 1.359375 0.0507812 1.109375 -0.09375 C 0.859375 -0.238281 0.671875 -0.441406 0.546875 -0.703125 C 0.421875 -0.960938 0.359375 -1.265625 0.359375 -1.609375 C 0.359375 -2.066406 0.46875 -2.484375 0.6875 -2.859375 C 0.90625 -3.242188 1.195312 -3.546875 1.5625 -3.765625 C 1.925781 -3.984375 2.320312 -4.09375 2.75 -4.09375 C 3.007812 -4.09375 3.238281 -4.050781 3.4375 -3.96875 C 3.632812 -3.882812 3.78125 -3.765625 3.875 -3.609375 C 3.976562 -3.460938 4.03125 -3.289062 4.03125 -3.09375 Z M 1.03125 -2.0625 C 2.601562 -2.144531 3.390625 -2.472656 3.390625 -3.046875 C 3.390625 -3.203125 3.328125 -3.320312 3.203125 -3.40625 C 3.078125 -3.5 2.914062 -3.546875 2.71875 -3.546875 C 2.457031 -3.546875 2.207031 -3.484375 1.96875 -3.359375 C 1.738281 -3.242188 1.535156 -3.070312 1.359375 -2.84375 C 1.191406 -2.625 1.082031 -2.363281 1.03125 -2.0625 Z M 1.03125 -2.0625 "/></g></g></g></svg>